# xmcd
#
# Track frame offsets:
#	150
#	21074
#	40211
#	55193
#	100163
#	117172
#	131587
#	152204
#	174825
#	195099
#	212633
#	238701
#
# Disc length: 3411 seconds
#
# Revision: 0
# Processed by: cddbd v1.5.2PL0 Copyright (c) Steve Scherf et al.
# Submitted via: EasyCDDAExtractor 16.0.9.1
#
DISCID=930d510c
DTITLE=Đan Nguyên - AsiaCD347 - Người Lính and Mùa Xuân
DYEAR=2013
DGENRE=Pop
TTITLE0=Đan Nguyên - Câu Chuyện Đầu Năm
TTITLE1=Đan Nguyên - Xuân Này Con Không Về
TTITLE2=Đan Nguyên and Hoàng Thục Linh - Ngày Xuân Thăm Nhau
TTITLE3=Đan Nguyên - Thư Xuân Ba Viết Cho Con and Cám Ơn
TTITLE4=Đan Nguyên - Đầu Xuân Lính Chúc
TTITLE5=Đan Nguyên and Cát Lynh - Thiên Duyên Tiền Định
TTITLE6=Đan Nguyên - Mùa Xuân Đó Có Em
TTITLE7=Đan Nguyên - Đồn Vắng Chiều Xuân
TTITLE8=Đan Nguyên - Tôi Chưa Có Mùa Xuân
TTITLE9=Đan Nguyên and Ngọc Anh Vi - Hờn Anh Giận Em
TTITLE10=Đan Nguyên - Mùa Xuân Lá Khô
TTITLE11=Hoàng Thục Linh - Anh Cho Em Mùa Xuân
EXTD=
EXTT0=
EXTT1=
EXTT2=
EXTT3=
EXTT4=
EXTT5=
EXTT6=
EXTT7=
EXTT8=
EXTT9=
EXTT10=
EXTT11=
PLAYORDER=
